<svg width="1200" height="800" viewBox="0 0 1200 800" fill="none" xmlns="http://www.w3.org/2000/svg">
  <rect width="1200" height="800" rx="48" fill="#08111D"/>
  <rect x="64" y="64" width="1072" height="672" rx="40" fill="#111827" stroke="rgba(255,255,255,0.08)"/>
  <path d="M170 560L390 310L520 470L650 320L980 560H170Z" fill="rgba(34,197,94,0.16)"/>
  <path d="M310 560L430 390L530 520L610 430L780 560H310Z" fill="rgba(59,130,246,0.24)"/>
  <rect x="790" y="180" width="220" height="430" rx="42" fill="rgba(255,255,255,0.08)" stroke="rgba(255,255,255,0.14)"/>
  <rect x="824" y="234" width="152" height="286" rx="24" fill="#0B1220"/>
  <circle cx="900" cy="560" r="18" fill="rgba(255,255,255,0.55)"/>
  <circle cx="900" cy="360" r="68" fill="rgba(168,85,247,0.2)"/>
  <path d="M870 386L900 338L930 386L900 410Z" fill="#A855F7"/>
  <text x="110" y="730" fill="rgba(255,255,255,0.88)" font-family="Arial, sans-serif" font-size="40" font-weight="700">Hidden Nepal Mobile App</text>
  <text x="110" y="772" fill="rgba(255,255,255,0.55)" font-family="Arial, sans-serif" font-size="22">Travel stories, itineraries, and underrated places</text>
</svg>